STARTFONT 2.1
COMMENT "Generated by gdbfed"
COMMENT FONT -kakwa-kakwafont-Medium-R-Normal--12-120-72-72-C-60-ISO8859-1
FONT -omega-crispymono-normal
SIZE 12 72 72
FONTBOUNDINGBOX 6 12 0 -2
STARTPROPERTIES 23
FAMILY_NAME "crispy"
SETWIDTH_NAME "Normal"
ADD_STYLE_NAME ""
WEIGHT_NAME "Medium"
SLANT "R"
PIXEL_SIZE 12
POINT_SIZE 120
RESOLUTION_X 72
RESOLUTION_Y 72
SPACING "C"
AVERAGE_WIDTH 60
CHARSET_REGISTRY "ISO8859"
CHARSET_ENCODING "1"
MIN_SPACE 6
WEIGHT 10
RESOLUTION 99
X_HEIGHT 10
QUAD_WIDTH 6
FONT_ASCENT 10
FONT_DESCENT 2
ENDPROPERTIES
CHARS 251
STARTCHAR uni25AE
ENCODING 0
SWIDTH 500 0
DWIDTH 6 0
BBX 5 8 0 0
BITMAP
f8
f8
f8
f8
f8
f8
f8
f8
ENDCHAR
STARTCHAR blackdiamond
ENCODING 1
SWIDTH 500 0
DWIDTH 6 0
BBX 5 5 0 2
BITMAP
20
70
f8
70
20
ENDCHAR
STARTCHAR shade
ENCODING 2
SWIDTH 500 0
DWIDTH 6 0
BBX 6 12 0 -2
BITMAP
a8
54
a8
54
a8
54
a8
54
a8
54
a8
54
ENDCHAR
STARTCHAR uni2409
ENCODING 3
SWIDTH 500 0
DWIDTH 6 0
BBX 6 11 0 -1
BITMAP
90
90
f0
90
90
00
7c
10
10
10
10
ENDCHAR
STARTCHAR uni240C
ENCODING 4
SWIDTH 500 0
DWIDTH 6 0
BBX 6 11 0 -1
BITMAP
f0
80
e0
80
80
00
3c
20
38
20
20
ENDCHAR
STARTCHAR uni240D
ENCODING 5
SWIDTH 500 0
DWIDTH 6 0
BBX 6 11 0 -1
BITMAP
60
90
80
90
60
00
38
24
38
28
24
ENDCHAR
STARTCHAR uni240A
ENCODING 6
SWIDTH 500 0
DWIDTH 6 0
BBX 6 11 0 -1
BITMAP
80
80
80
80
f0
00
3c
20
38
20
20
ENDCHAR
STARTCHAR degree
ENCODING 7
SWIDTH 500 0
DWIDTH 6 0
BBX 3 3 1 6
BITMAP
40
a0
40
ENDCHAR
STARTCHAR plusminus
ENCODING 8
SWIDTH 500 0
DWIDTH 6 0
BBX 5 7 0 0
BITMAP
20
20
f8
20
20
00
f8
ENDCHAR
STARTCHAR uni2424
ENCODING 9
SWIDTH 500 0
DWIDTH 6 0
BBX 6 11 0 -1
BITMAP
90
d0
b0
90
90
00
20
20
20
20
3c
ENDCHAR
STARTCHAR uni240B
ENCODING 10
SWIDTH 500 0
DWIDTH 6 0
BBX 6 11 0 -1
BITMAP
88
88
88
50
20
00
7c
10
10
10
10
ENDCHAR
STARTCHAR SF040000
ENCODING 11
SWIDTH 500 0
DWIDTH 6 0
BBX 3 6 0 4
BITMAP
20
20
20
20
20
e0
ENDCHAR
STARTCHAR SF030000
ENCODING 12
SWIDTH 500 0
DWIDTH 6 0
BBX 3 7 0 -2
BITMAP
e0
20
20
20
20
20
20
ENDCHAR
STARTCHAR SF010000
ENCODING 13
SWIDTH 500 0
DWIDTH 6 0
BBX 4 7 2 -2
BITMAP
f0
80
80
80
80
80
80
ENDCHAR
STARTCHAR SF020000
ENCODING 14
SWIDTH 500 0
DWIDTH 6 0
BBX 4 6 2 4
BITMAP
80
80
80
80
80
f0
ENDCHAR
STARTCHAR SF050000
ENCODING 15
SWIDTH 500 0
DWIDTH 6 0
BBX 6 12 0 -2
BITMAP
20
20
20
20
20
fc
20
20
20
20
20
20
ENDCHAR
STARTCHAR uni23BA
ENCODING 16
SWIDTH 500 0
DWIDTH 6 0
BBX 6 1 0 9
BITMAP
fc
ENDCHAR
STARTCHAR uni23BB
ENCODING 17
SWIDTH 500 0
DWIDTH 6 0
BBX 6 1 0 6
BITMAP
fc
ENDCHAR
STARTCHAR SF100000
ENCODING 18
SWIDTH 500 0
DWIDTH 6 0
BBX 6 1 0 4
BITMAP
fc
ENDCHAR
STARTCHAR uni23BC
ENCODING 19
SWIDTH 500 0
DWIDTH 6 0
BBX 6 1 0 1
BITMAP
fc
ENDCHAR
STARTCHAR uni23BD
ENCODING 20
SWIDTH 500 0
DWIDTH 6 0
BBX 6 1 0 -2
BITMAP
fc
ENDCHAR
STARTCHAR SF080000
ENCODING 21
SWIDTH 500 0
DWIDTH 6 0
BBX 4 12 2 -2
BITMAP
80
80
80
80
80
f0
80
80
80
80
80
80
ENDCHAR
STARTCHAR SF090000
ENCODING 22
SWIDTH 500 0
DWIDTH 6 0
BBX 3 12 0 -2
BITMAP
20
20
20
20
20
e0
20
20
20
20
20
20
ENDCHAR
STARTCHAR SF070000
ENCODING 23
SWIDTH 500 0
DWIDTH 6 0
BBX 6 6 0 4
BITMAP
20
20
20
20
20
fc
ENDCHAR
STARTCHAR SF060000
ENCODING 24
SWIDTH 500 0
DWIDTH 6 0
BBX 6 7 0 -2
BITMAP
fc
20
20
20
20
20
20
ENDCHAR
STARTCHAR SF110000
ENCODING 25
SWIDTH 500 0
DWIDTH 6 0
BBX 1 12 2 -2
BITMAP
80
80
80
80
80
80
80
80
80
80
80
80
ENDCHAR
STARTCHAR lessequal
ENCODING 26
SWIDTH 500 0
DWIDTH 6 0
BBX 5 9 0 0
BITMAP
10
20
40
80
40
20
10
00
f8
ENDCHAR
STARTCHAR greaterequal
ENCODING 27
SWIDTH 500 0
DWIDTH 6 0
BBX 5 9 0 0
BITMAP
40
20
10
08
10
20
40
00
f8
ENDCHAR
STARTCHAR pi
ENCODING 28
SWIDTH 500 0
DWIDTH 6 0
BBX 5 6 0 0
BITMAP
f8
88
88
88
88
88
ENDCHAR
STARTCHAR notequal
ENCODING 29
SWIDTH 500 0
DWIDTH 6 0
BBX 5 6 0 1
BITMAP
08
f8
20
40
f8
80
ENDCHAR
STARTCHAR sterling
ENCODING 30
SWIDTH 500 0
DWIDTH 6 0
BBX 5 8 0 0
BITMAP
30
48
40
f0
40
40
48
f8
ENDCHAR
STARTCHAR periodcentered
ENCODING 31
SWIDTH 500 0
DWIDTH 6 0
BBX 1 2 2 3
BITMAP
80
80
ENDCHAR
STARTCHAR space
ENCODING 32
SWIDTH 500 0
DWIDTH 6 0
BBX 0 0 0 0
BITMAP
ENDCHAR
STARTCHAR exclam
ENCODING 33
SWIDTH 500 0
DWIDTH 6 0
BBX 1 8 2 0
BITMAP
80
80
80
80
80
00
00
80
ENDCHAR
STARTCHAR quotedbl
ENCODING 34
SWIDTH 500 0
DWIDTH 6 0
BBX 3 3 1 6
BITMAP
a0
a0
a0
ENDCHAR
STARTCHAR numbersign
ENCODING 35
SWIDTH 500 0
DWIDTH 6 0
BBX 5 8 0 0
BITMAP
50
50
f8
50
50
f8
50
50
ENDCHAR
STARTCHAR dollar
ENCODING 36
SWIDTH 500 0
DWIDTH 6 0
BBX 5 9 0 -1
BITMAP
20
70
a8
a0
70
28
a8
70
20
ENDCHAR
STARTCHAR percent
ENCODING 37
SWIDTH 500 0
DWIDTH 6 0
BBX 6 8 0 0
BITMAP
48
a8
50
10
20
28
54
48
ENDCHAR
STARTCHAR ampersand
ENCODING 38
SWIDTH 500 0
DWIDTH 6 0
BBX 5 8 0 0
BITMAP
20
50
50
20
68
90
90
68
ENDCHAR
STARTCHAR quotesingle
ENCODING 39
SWIDTH 500 0
DWIDTH 6 0
BBX 1 3 2 6
BITMAP
80
80
80
ENDCHAR
STARTCHAR parenleft
ENCODING 40
SWIDTH 500 0
DWIDTH 6 0
BBX 3 10 2 -1
BITMAP
20
40
40
80
80
80
80
40
40
20
ENDCHAR
STARTCHAR parenright
ENCODING 41
SWIDTH 500 0
DWIDTH 6 0
BBX 3 10 1 -1
BITMAP
80
40
40
20
20
20
20
40
40
80
ENDCHAR
STARTCHAR asterisk
ENCODING 42
SWIDTH 500 0
DWIDTH 6 0
BBX 5 5 0 1
BITMAP
50
20
f8
20
50
ENDCHAR
STARTCHAR plus
ENCODING 43
SWIDTH 500 0
DWIDTH 6 0
BBX 5 5 0 1
BITMAP
20
20
f8
20
20
ENDCHAR
STARTCHAR comma
ENCODING 44
SWIDTH 500 0
DWIDTH 6 0
BBX 2 3 1 -1
BITMAP
40
40
80
ENDCHAR
STARTCHAR hyphen
ENCODING 45
SWIDTH 500 0
DWIDTH 6 0
BBX 4 1 1 3
BITMAP
f0
ENDCHAR
STARTCHAR period
ENCODING 46
SWIDTH 500 0
DWIDTH 6 0
BBX 1 2 2 0
BITMAP
80
80
ENDCHAR
STARTCHAR slash
ENCODING 47
SWIDTH 500 0
DWIDTH 6 0
BBX 4 8 1 0
BITMAP
10
10
20
20
40
40
80
80
ENDCHAR
STARTCHAR zero
ENCODING 48
SWIDTH 500 0
DWIDTH 6 0
BBX 4 8 1 0
BITMAP
60
90
90
b0
d0
90
90
60
ENDCHAR
STARTCHAR one
ENCODING 49
SWIDTH 500 0
DWIDTH 6 0
BBX 3 8 1 0
BITMAP
40
c0
40
40
40
40
40
e0
ENDCHAR
STARTCHAR two
ENCODING 50
SWIDTH 500 0
DWIDTH 6 0
BBX 4 8 1 0
BITMAP
60
90
90
10
20
40
80
f0
ENDCHAR
STARTCHAR three
ENCODING 51
SWIDTH 500 0
DWIDTH 6 0
BBX 4 8 1 0
BITMAP
60
90
10
60
10
10
90
60
ENDCHAR
STARTCHAR four
ENCODING 52
SWIDTH 500 0
DWIDTH 6 0
BBX 4 8 1 0
BITMAP
10
30
50
90
90
f0
10
10
ENDCHAR
STARTCHAR five
ENCODING 53
SWIDTH 500 0
DWIDTH 6 0
BBX 4 8 1 0
BITMAP
f0
80
80
e0
10
10
90
60
ENDCHAR
STARTCHAR six
ENCODING 54
SWIDTH 500 0
DWIDTH 6 0
BBX 4 8 1 0
BITMAP
60
90
80
e0
90
90
90
60
ENDCHAR
STARTCHAR seven
ENCODING 55
SWIDTH 500 0
DWIDTH 6 0
BBX 4 8 1 0
BITMAP
f0
10
10
20
20
40
40
40
ENDCHAR
STARTCHAR eight
ENCODING 56
SWIDTH 500 0
DWIDTH 6 0
BBX 4 8 1 0
BITMAP
60
90
90
60
90
90
90
60
ENDCHAR
STARTCHAR nine
ENCODING 57
SWIDTH 500 0
DWIDTH 6 0
BBX 4 8 1 0
BITMAP
60
90
90
90
70
10
90
60
ENDCHAR
STARTCHAR colon
ENCODING 58
SWIDTH 500 0
DWIDTH 6 0
BBX 1 6 2 0
BITMAP
80
80
00
00
80
80
ENDCHAR
STARTCHAR semicolon
ENCODING 59
SWIDTH 500 0
DWIDTH 6 0
BBX 2 7 1 -1
BITMAP
40
40
00
00
40
40
80
ENDCHAR
STARTCHAR less
ENCODING 60
SWIDTH 500 0
DWIDTH 6 0
BBX 4 7 1 0
BITMAP
10
20
40
80
40
20
10
ENDCHAR
STARTCHAR equal
ENCODING 61
SWIDTH 500 0
DWIDTH 6 0
BBX 5 3 0 2
BITMAP
f8
00
f8
ENDCHAR
STARTCHAR greater
ENCODING 62
SWIDTH 500 0
DWIDTH 6 0
BBX 4 7 1 0
BITMAP
80
40
20
10
20
40
80
ENDCHAR
STARTCHAR question
ENCODING 63
SWIDTH 500 0
DWIDTH 6 0
BBX 4 8 1 0
BITMAP
60
90
90
20
40
00
40
40
ENDCHAR
STARTCHAR at
ENCODING 64
SWIDTH 500 0
DWIDTH 6 0
BBX 5 8 0 0
BITMAP
70
88
b8
a8
a8
98
80
78
ENDCHAR
STARTCHAR A
ENCODING 65
SWIDTH 500 0
DWIDTH 6 0
BBX 4 8 1 0
BITMAP
60
90
90
90
f0
90
90
90
ENDCHAR
STARTCHAR B
ENCODING 66
SWIDTH 500 0
DWIDTH 6 0
BBX 4 8 1 0
BITMAP
e0
90
90
e0
90
90
90
e0
ENDCHAR
STARTCHAR C
ENCODING 67
SWIDTH 500 0
DWIDTH 6 0
BBX 4 8 1 0
BITMAP
60
90
80
80
80
80
90
60
ENDCHAR
STARTCHAR D
ENCODING 68
SWIDTH 500 0
DWIDTH 6 0
BBX 4 8 1 0
BITMAP
e0
90
90
90
90
90
90
e0
ENDCHAR
STARTCHAR E
ENCODING 69
SWIDTH 500 0
DWIDTH 6 0
BBX 4 8 1 0
BITMAP
f0
80
80
e0
80
80
80
f0
ENDCHAR
STARTCHAR F
ENCODING 70
SWIDTH 500 0
DWIDTH 6 0
BBX 4 8 1 0
BITMAP
f0
80
80
e0
80
80
80
80
ENDCHAR
STARTCHAR G
ENCODING 71
SWIDTH 500 0
DWIDTH 6 0
BBX 4 8 1 0
BITMAP
60
90
80
80
b0
90
90
60
ENDCHAR
STARTCHAR H
ENCODING 72
SWIDTH 500 0
DWIDTH 6 0
BBX 4 8 1 0
BITMAP
90
90
90
f0
90
90
90
90
ENDCHAR
STARTCHAR I
ENCODING 73
SWIDTH 500 0
DWIDTH 6 0
BBX 3 8 1 0
BITMAP
e0
40
40
40
40
40
40
e0
ENDCHAR
STARTCHAR J
ENCODING 74
SWIDTH 500 0
DWIDTH 6 0
BBX 4 8 1 0
BITMAP
70
20
20
20
20
a0
a0
40
ENDCHAR
STARTCHAR K
ENCODING 75
SWIDTH 500 0
DWIDTH 6 0
BBX 4 8 1 0
BITMAP
90
90
a0
c0
c0
a0
90
90
ENDCHAR
STARTCHAR L
ENCODING 76
SWIDTH 500 0
DWIDTH 6 0
BBX 4 8 1 0
BITMAP
80
80
80
80
80
80
80
f0
ENDCHAR
STARTCHAR M
ENCODING 77
SWIDTH 500 0
DWIDTH 6 0
BBX 5 8 0 0
BITMAP
88
d8
a8
88
88
88
88
88
ENDCHAR
STARTCHAR N
ENCODING 78
SWIDTH 500 0
DWIDTH 6 0
BBX 4 8 1 0
BITMAP
90
90
d0
d0
b0
b0
90
90
ENDCHAR
STARTCHAR O
ENCODING 79
SWIDTH 500 0
DWIDTH 6 0
BBX 4 8 1 0
BITMAP
60
90
90
90
90
90
90
60
ENDCHAR
STARTCHAR P
ENCODING 80
SWIDTH 500 0
DWIDTH 6 0
BBX 4 8 1 0
BITMAP
e0
90
90
90
e0
80
80
80
ENDCHAR
STARTCHAR Q
ENCODING 81
SWIDTH 500 0
DWIDTH 6 0
BBX 4 9 1 -1
BITMAP
60
90
90
90
90
90
b0
60
30
ENDCHAR
STARTCHAR R
ENCODING 82
SWIDTH 500 0
DWIDTH 6 0
BBX 4 8 1 0
BITMAP
e0
90
90
90
e0
90
90
90
ENDCHAR
STARTCHAR S
ENCODING 83
SWIDTH 500 0
DWIDTH 6 0
BBX 4 8 1 0
BITMAP
60
90
80
60
10
10
90
60
ENDCHAR
STARTCHAR T
ENCODING 84
SWIDTH 500 0
DWIDTH 6 0
BBX 5 8 0 0
BITMAP
f8
20
20
20
20
20
20
20
ENDCHAR
STARTCHAR U
ENCODING 85
SWIDTH 500 0
DWIDTH 6 0
BBX 4 8 1 0
BITMAP
90
90
90
90
90
90
90
60
ENDCHAR
STARTCHAR V
ENCODING 86
SWIDTH 500 0
DWIDTH 6 0
BBX 5 8 0 0
BITMAP
88
88
88
50
50
50
20
20
ENDCHAR
STARTCHAR W
ENCODING 87
SWIDTH 500 0
DWIDTH 6 0
BBX 5 8 0 0
BITMAP
88
88
88
88
88
a8
d8
88
ENDCHAR
STARTCHAR X
ENCODING 88
SWIDTH 500 0
DWIDTH 6 0
BBX 4 8 1 0
BITMAP
90
90
90
60
60
90
90
90
ENDCHAR
STARTCHAR Y
ENCODING 89
SWIDTH 500 0
DWIDTH 6 0
BBX 5 8 0 0
BITMAP
88
88
50
50
20
20
20
20
ENDCHAR
STARTCHAR Z
ENCODING 90
SWIDTH 500 0
DWIDTH 6 0
BBX 4 8 1 0
BITMAP
f0
10
10
20
40
80
80
f0
ENDCHAR
STARTCHAR bracketleft
ENCODING 91
SWIDTH 500 0
DWIDTH 6 0
BBX 3 8 2 0
BITMAP
e0
80
80
80
80
80
80
e0
ENDCHAR
STARTCHAR backslash
ENCODING 92
SWIDTH 500 0
DWIDTH 6 0
BBX 4 8 1 0
BITMAP
80
80
40
40
20
20
10
10
ENDCHAR
STARTCHAR bracketright
ENCODING 93
SWIDTH 500 0
DWIDTH 6 0
BBX 3 8 1 0
BITMAP
e0
20
20
20
20
20
20
e0
ENDCHAR
STARTCHAR asciicircum
ENCODING 94
SWIDTH 500 0
DWIDTH 6 0
BBX 5 3 0 6
BITMAP
20
50
88
ENDCHAR
STARTCHAR underscore
ENCODING 95
SWIDTH 500 0
DWIDTH 6 0
BBX 4 1 1 -1
BITMAP
f0
ENDCHAR
STARTCHAR grave
ENCODING 96
SWIDTH 500 0
DWIDTH 6 0
BBX 2 2 1 8
BITMAP
80
40
ENDCHAR
STARTCHAR a
ENCODING 97
SWIDTH 500 0
DWIDTH 6 0
BBX 4 6 1 0
BITMAP
70
90
90
90
b0
50
ENDCHAR
STARTCHAR b
ENCODING 98
SWIDTH 500 0
DWIDTH 6 0
BBX 4 8 1 0
BITMAP
80
80
e0
90
90
90
90
e0
ENDCHAR
STARTCHAR c
ENCODING 99
SWIDTH 500 0
DWIDTH 6 0
BBX 4 6 1 0
BITMAP
60
90
80
80
90
60
ENDCHAR
STARTCHAR d
ENCODING 100
SWIDTH 500 0
DWIDTH 6 0
BBX 4 8 1 0
BITMAP
10
10
70
90
90
90
90
70
ENDCHAR
STARTCHAR e
ENCODING 101
SWIDTH 500 0
DWIDTH 6 0
BBX 4 6 1 0
BITMAP
60
90
f0
80
90
60
ENDCHAR
STARTCHAR f
ENCODING 102
SWIDTH 500 0
DWIDTH 6 0
BBX 4 8 1 0
BITMAP
30
40
e0
40
40
40
40
40
ENDCHAR
STARTCHAR g
ENCODING 103
SWIDTH 500 0
DWIDTH 6 0
BBX 4 8 1 -2
BITMAP
70
90
90
90
90
70
10
60
ENDCHAR
STARTCHAR h
ENCODING 104
SWIDTH 500 0
DWIDTH 6 0
BBX 4 8 1 0
BITMAP
80
80
e0
90
90
90
90
90
ENDCHAR
STARTCHAR i
ENCODING 105
SWIDTH 500 0
DWIDTH 6 0
BBX 3 8 1 0
BITMAP
40
00
c0
40
40
40
40
60
ENDCHAR
STARTCHAR j
ENCODING 106
SWIDTH 500 0
DWIDTH 6 0
BBX 3 10 1 -2
BITMAP
20
00
60
20
20
20
20
20
a0
c0
ENDCHAR
STARTCHAR k
ENCODING 107
SWIDTH 500 0
DWIDTH 6 0
BBX 4 8 1 0
BITMAP
80
80
90
a0
c0
c0
a0
90
ENDCHAR
STARTCHAR l
ENCODING 108
SWIDTH 500 0
DWIDTH 6 0
BBX 3 8 1 0
BITMAP
c0
40
40
40
40
40
40
60
ENDCHAR
STARTCHAR m
ENCODING 109
SWIDTH 500 0
DWIDTH 6 0
BBX 5 6 0 0
BITMAP
f0
a8
a8
a8
a8
88
ENDCHAR
STARTCHAR n
ENCODING 110
SWIDTH 500 0
DWIDTH 6 0
BBX 4 6 1 0
BITMAP
e0
90
90
90
90
90
ENDCHAR
STARTCHAR o
ENCODING 111
SWIDTH 500 0
DWIDTH 6 0
BBX 4 6 1 0
BITMAP
60
90
90
90
90
60
ENDCHAR
STARTCHAR p
ENCODING 112
SWIDTH 500 0
DWIDTH 6 0
BBX 4 8 1 -2
BITMAP
e0
90
90
90
90
e0
80
80
ENDCHAR
STARTCHAR q
ENCODING 113
SWIDTH 500 0
DWIDTH 6 0
BBX 4 8 1 -2
BITMAP
70
90
90
90
90
70
10
10
ENDCHAR
STARTCHAR r
ENCODING 114
SWIDTH 500 0
DWIDTH 6 0
BBX 4 6 1 0
BITMAP
b0
c0
80
80
80
80
ENDCHAR
STARTCHAR s
ENCODING 115
SWIDTH 500 0
DWIDTH 6 0
BBX 4 6 1 0
BITMAP
70
80
60
10
10
e0
ENDCHAR
STARTCHAR t
ENCODING 116
SWIDTH 500 0
DWIDTH 6 0
BBX 4 8 1 0
BITMAP
40
40
f0
40
40
40
40
30
ENDCHAR
STARTCHAR u
ENCODING 117
SWIDTH 500 0
DWIDTH 6 0
BBX 4 6 1 0
BITMAP
90
90
90
90
90
70
ENDCHAR
STARTCHAR v
ENCODING 118
SWIDTH 500 0
DWIDTH 6 0
BBX 5 6 0 0
BITMAP
88
88
50
50
20
20
ENDCHAR
STARTCHAR w
ENCODING 119
SWIDTH 500 0
DWIDTH 6 0
BBX 5 6 0 0
BITMAP
88
88
a8
a8
a8
50
ENDCHAR
STARTCHAR x
ENCODING 120
SWIDTH 500 0
DWIDTH 6 0
BBX 4 6 1 0
BITMAP
90
90
60
60
90
90
ENDCHAR
STARTCHAR y
ENCODING 121
SWIDTH 500 0
DWIDTH 6 0
BBX 4 8 1 -2
BITMAP
90
90
90
90
90
70
10
60
ENDCHAR
STARTCHAR z
ENCODING 122
SWIDTH 500 0
DWIDTH 6 0
BBX 4 6 1 0
BITMAP
f0
10
20
40
80
f0
ENDCHAR
STARTCHAR braceleft
ENCODING 123
SWIDTH 500 0
DWIDTH 6 0
BBX 4 9 1 -1
BITMAP
10
20
20
20
c0
20
20
20
10
ENDCHAR
STARTCHAR bar
ENCODING 124
SWIDTH 500 0
DWIDTH 6 0
BBX 1 10 2 -1
BITMAP
80
80
80
80
80
80
80
80
80
80
ENDCHAR
STARTCHAR braceright
ENCODING 125
SWIDTH 500 0
DWIDTH 6 0
BBX 4 9 1 -1
BITMAP
80
40
40
40
30
40
40
40
80
ENDCHAR
STARTCHAR asciitilde
ENCODING 126
SWIDTH 500 0
DWIDTH 6 0
BBX 5 3 0 2
BITMAP
48
a8
90
ENDCHAR
STARTCHAR house
ENCODING 127
SWIDTH 500 0
DWIDTH 6 0
BBX 5 7 0 0
BITMAP
20
20
50
50
88
88
f8
ENDCHAR
STARTCHAR Euro
ENCODING 128
SWIDTH 500 0
DWIDTH 6 0
BBX 5 7 0 0
BITMAP
30
48
e0
40
e0
48
30
ENDCHAR
STARTCHAR quotesinglbase
ENCODING 130
SWIDTH 500 0
DWIDTH 6 0
BBX 2 3 1 -1
BITMAP
40
40
80
ENDCHAR
STARTCHAR florin
ENCODING 131
SWIDTH 500 0
DWIDTH 6 0
BBX 5 10 0 -2
BITMAP
10
28
20
70
20
20
20
20
a0
40
ENDCHAR
STARTCHAR quotedblbase
ENCODING 132
SWIDTH 500 0
DWIDTH 6 0
BBX 4 3 0 -1
BITMAP
50
50
a0
ENDCHAR
STARTCHAR ellipsis
ENCODING 133
SWIDTH 500 0
DWIDTH 6 0
BBX 5 2 0 0
BITMAP
a8
a8
ENDCHAR
STARTCHAR dagger
ENCODING 134
SWIDTH 500 0
DWIDTH 6 0
BBX 3 8 1 0
BITMAP
40
e0
40
40
40
40
40
40
ENDCHAR
STARTCHAR daggerdbl
ENCODING 135
SWIDTH 500 0
DWIDTH 6 0
BBX 3 8 1 0
BITMAP
40
e0
40
40
40
40
e0
40
ENDCHAR
STARTCHAR circumflex
ENCODING 136
SWIDTH 500 0
DWIDTH 6 0
BBX 3 2 1 8
BITMAP
40
a0
ENDCHAR
STARTCHAR perthousand
ENCODING 137
SWIDTH 500 0
DWIDTH 6 0
BBX 6 8 0 0
BITMAP
44
a8
50
20
40
a8
54
28
ENDCHAR
STARTCHAR Scaron
ENCODING 138
SWIDTH 500 0
DWIDTH 6 0
BBX 4 10 1 0
BITMAP
90
60
60
90
80
60
10
10
90
60
ENDCHAR
STARTCHAR guilsinglleft
ENCODING 139
SWIDTH 500 0
DWIDTH 6 0
BBX 4 7 1 0
BITMAP
10
20
40
80
40
20
10
ENDCHAR
STARTCHAR OE
ENCODING 140
SWIDTH 500 0
DWIDTH 6 0
BBX 5 8 0 0
BITMAP
78
a0
a0
b8
a0
a0
a0
78
ENDCHAR
STARTCHAR Zcaron
ENCODING 142
SWIDTH 500 0
DWIDTH 6 0
BBX 4 10 1 0
BITMAP
90
60
f0
10
10
20
40
80
80
f0
ENDCHAR
STARTCHAR quoteleft
ENCODING 145
SWIDTH 500 0
DWIDTH 6 0
BBX 2 3 2 6
BITMAP
40
80
80
ENDCHAR
STARTCHAR quoteright
ENCODING 146
SWIDTH 500 0
DWIDTH 6 0
BBX 2 3 1 6
BITMAP
40
40
80
ENDCHAR
STARTCHAR quotedblleft
ENCODING 147
SWIDTH 500 0
DWIDTH 6 0
BBX 4 3 1 6
BITMAP
50
a0
a0
ENDCHAR
STARTCHAR quotedblright
ENCODING 148
SWIDTH 500 0
DWIDTH 6 0
BBX 4 3 0 6
BITMAP
50
50
a0
ENDCHAR
STARTCHAR bullet
ENCODING 149
SWIDTH 500 0
DWIDTH 6 0
BBX 4 4 1 2
BITMAP
60
f0
f0
60
ENDCHAR
STARTCHAR endash
ENCODING 150
SWIDTH 500 0
DWIDTH 6 0
BBX 5 1 0 3
BITMAP
f8
ENDCHAR
STARTCHAR emdash
ENCODING 151
SWIDTH 500 0
DWIDTH 6 0
BBX 5 1 0 3
BITMAP
f8
ENDCHAR
STARTCHAR tilde
ENCODING 152
SWIDTH 500 0
DWIDTH 6 0
BBX 4 2 1 8
BITMAP
50
a0
ENDCHAR
STARTCHAR trademark
ENCODING 153
SWIDTH 500 0
DWIDTH 6 0
BBX 6 4 0 4
BITMAP
f4
5c
54
54
ENDCHAR
STARTCHAR scaron
ENCODING 154
SWIDTH 500 0
DWIDTH 6 0
BBX 4 8 1 0
BITMAP
a0
40
70
80
60
10
10
e0
ENDCHAR
STARTCHAR guilsinglright
ENCODING 155
SWIDTH 500 0
DWIDTH 6 0
BBX 4 7 1 0
BITMAP
80
40
20
10
20
40
80
ENDCHAR
STARTCHAR oe
ENCODING 156
SWIDTH 500 0
DWIDTH 6 0
BBX 5 6 0 0
BITMAP
70
a8
a8
b0
a0
78
ENDCHAR
STARTCHAR zcaron
ENCODING 158
SWIDTH 500 0
DWIDTH 6 0
BBX 4 8 1 0
BITMAP
50
20
f0
10
20
40
80
f0
ENDCHAR
STARTCHAR Ydieresis
ENCODING 159
SWIDTH 500 0
DWIDTH 6 0
BBX 5 10 0 0
BITMAP
88
00
88
88
50
50
20
20
20
20
ENDCHAR
STARTCHAR nbspace
ENCODING 160
SWIDTH 500 0
DWIDTH 6 0
BBX 0 0 0 0
BITMAP
ENDCHAR
STARTCHAR exclamdown
ENCODING 161
SWIDTH 500 0
DWIDTH 6 0
BBX 1 8 2 0
BITMAP
80
80
00
80
80
80
80
80
ENDCHAR
STARTCHAR cent
ENCODING 162
SWIDTH 500 0
DWIDTH 6 0
BBX 5 8 0 -1
BITMAP
20
70
a8
a0
a0
a8
70
20
ENDCHAR
STARTCHAR sterling
ENCODING 163
SWIDTH 500 0
DWIDTH 6 0
BBX 5 8 0 0
BITMAP
30
48
40
f0
40
40
48
f8
ENDCHAR
STARTCHAR currency
ENCODING 164
SWIDTH 500 0
DWIDTH 6 0
BBX 4 6 1 1
BITMAP
90
60
90
90
60
90
ENDCHAR
STARTCHAR yen
ENCODING 165
SWIDTH 500 0
DWIDTH 6 0
BBX 5 8 0 0
BITMAP
88
88
50
20
70
20
70
20
ENDCHAR
STARTCHAR brokenbar
ENCODING 166
SWIDTH 500 0
DWIDTH 6 0
BBX 1 8 2 0
BITMAP
80
80
80
00
00
80
80
80
ENDCHAR
STARTCHAR section
ENCODING 167
SWIDTH 500 0
DWIDTH 6 0
BBX 4 9 1 0
BITMAP
60
90
40
a0
90
50
20
90
60
ENDCHAR
STARTCHAR dieresis
ENCODING 168
SWIDTH 500 0
DWIDTH 6 0
BBX 3 2 1 8
BITMAP
a0
a0
ENDCHAR
STARTCHAR copyright
ENCODING 169
SWIDTH 500 0
DWIDTH 6 0
BBX 6 7 0 1
BITMAP
78
84
b4
a4
b4
84
78
ENDCHAR
STARTCHAR ordfeminine
ENCODING 170
SWIDTH 500 0
DWIDTH 6 0
BBX 4 7 1 3
BITMAP
60
10
70
90
70
00
f0
ENDCHAR
STARTCHAR guillemotleft
ENCODING 171
SWIDTH 500 0
DWIDTH 6 0
BBX 6 7 0 0
BITMAP
14
28
50
a0
50
28
14
ENDCHAR
STARTCHAR logicalnot
ENCODING 172
SWIDTH 500 0
DWIDTH 6 0
BBX 5 4 0 2
BITMAP
f8
08
08
08
ENDCHAR
STARTCHAR softhyphen
ENCODING 173
SWIDTH 500 0
DWIDTH 6 0
BBX 4 1 1 3
BITMAP
f0
ENDCHAR
STARTCHAR registered
ENCODING 174
SWIDTH 500 0
DWIDTH 6 0
BBX 6 7 0 1
BITMAP
78
84
b4
ac
b4
ac
78
ENDCHAR
STARTCHAR macron
ENCODING 175
SWIDTH 500 0
DWIDTH 6 0
BBX 3 1 1 9
BITMAP
e0
ENDCHAR
STARTCHAR degree
ENCODING 176
SWIDTH 500 0
DWIDTH 6 0
BBX 3 3 1 6
BITMAP
40
a0
40
ENDCHAR
STARTCHAR plusminus
ENCODING 177
SWIDTH 500 0
DWIDTH 6 0
BBX 5 7 0 0
BITMAP
20
20
f8
20
20
00
f8
ENDCHAR
STARTCHAR twosuperior
ENCODING 178
SWIDTH 500 0
DWIDTH 6 0
BBX 4 5 1 4
BITMAP
60
90
20
40
f0
ENDCHAR
STARTCHAR threesuperior
ENCODING 179
SWIDTH 500 0
DWIDTH 6 0
BBX 4 5 1 4
BITMAP
e0
10
60
10
e0
ENDCHAR
STARTCHAR acute
ENCODING 180
SWIDTH 500 0
DWIDTH 6 0
BBX 2 2 2 8
BITMAP
40
80
ENDCHAR
STARTCHAR mu
ENCODING 181
SWIDTH 500 0
DWIDTH 6 0
BBX 5 8 0 -2
BITMAP
88
88
88
88
98
e8
80
80
ENDCHAR
STARTCHAR paragraph
ENCODING 182
SWIDTH 500 0
DWIDTH 6 0
BBX 5 8 0 0
BITMAP
78
a8
a8
a8
68
28
28
28
ENDCHAR
STARTCHAR periodcentered
ENCODING 183
SWIDTH 500 0
DWIDTH 6 0
BBX 1 2 2 3
BITMAP
80
80
ENDCHAR
STARTCHAR cedilla
ENCODING 184
SWIDTH 500 0
DWIDTH 6 0
BBX 2 3 1 -2
BITMAP
40
40
80
ENDCHAR
STARTCHAR onesuperior
ENCODING 185
SWIDTH 500 0
DWIDTH 6 0
BBX 2 4 1 5
BITMAP
40
c0
40
40
ENDCHAR
STARTCHAR ordmasculine
ENCODING 186
SWIDTH 500 0
DWIDTH 6 0
BBX 4 7 1 3
BITMAP
60
90
90
90
60
00
f0
ENDCHAR
STARTCHAR guillemotright
ENCODING 187
SWIDTH 500 0
DWIDTH 6 0
BBX 6 7 0 0
BITMAP
a0
50
28
14
28
50
a0
ENDCHAR
STARTCHAR onequarter
ENCODING 188
SWIDTH 500 0
DWIDTH 6 0
BBX 5 12 0 -2
BITMAP
40
c0
40
48
10
20
48
98
28
78
08
08
ENDCHAR
STARTCHAR onehalf
ENCODING 189
SWIDTH 500 0
DWIDTH 6 0
BBX 6 12 0 -2
BITMAP
40
c0
44
48
10
20
40
98
24
08
10
3c
ENDCHAR
STARTCHAR threequarters
ENCODING 190
SWIDTH 500 0
DWIDTH 6 0
BBX 6 12 0 -2
BITMAP
c0
20
c0
24
c8
10
24
4c
94
3c
04
04
ENDCHAR
STARTCHAR questiondown
ENCODING 191
SWIDTH 500 0
DWIDTH 6 0
BBX 4 8 1 0
BITMAP
20
20
00
20
40
90
90
60
ENDCHAR
STARTCHAR Agrave
ENCODING 192
SWIDTH 500 0
DWIDTH 6 0
BBX 4 10 1 0
BITMAP
40
20
60
90
90
90
f0
90
90
90
ENDCHAR
STARTCHAR Aacute
ENCODING 193
SWIDTH 500 0
DWIDTH 6 0
BBX 4 10 1 0
BITMAP
20
40
60
90
90
90
f0
90
90
90
ENDCHAR
STARTCHAR Acircumflex
ENCODING 194
SWIDTH 500 0
DWIDTH 6 0
BBX 4 10 1 0
BITMAP
60
90
60
90
90
90
f0
90
90
90
ENDCHAR
STARTCHAR Atilde
ENCODING 195
SWIDTH 500 0
DWIDTH 6 0
BBX 4 10 1 0
BITMAP
50
a0
60
90
90
90
f0
90
90
90
ENDCHAR
STARTCHAR Adieresis
ENCODING 196
SWIDTH 500 0
DWIDTH 6 0
BBX 4 10 1 0
BITMAP
90
00
60
90
90
90
f0
90
90
90
ENDCHAR
STARTCHAR Aring
ENCODING 197
SWIDTH 500 0
DWIDTH 6 0
BBX 4 10 1 0
BITMAP
60
90
60
90
90
90
f0
90
90
90
ENDCHAR
STARTCHAR AE
ENCODING 198
SWIDTH 500 0
DWIDTH 6 0
BBX 5 8 0 0
BITMAP
78
a0
a0
f8
a0
a0
a0
b8
ENDCHAR
STARTCHAR Ccedilla
ENCODING 199
SWIDTH 500 0
DWIDTH 6 0
BBX 4 10 1 -2
BITMAP
60
90
80
80
80
80
90
60
40
80
ENDCHAR
STARTCHAR Egrave
ENCODING 200
SWIDTH 500 0
DWIDTH 6 0
BBX 4 10 1 0
BITMAP
40
20
f0
80
80
e0
80
80
80
f0
ENDCHAR
STARTCHAR Eacute
ENCODING 201
SWIDTH 500 0
DWIDTH 6 0
BBX 4 10 1 0
BITMAP
20
40
f0
80
80
e0
80
80
80
f0
ENDCHAR
STARTCHAR Ecircumflex
ENCODING 202
SWIDTH 500 0
DWIDTH 6 0
BBX 4 10 1 0
BITMAP
20
50
f0
80
80
e0
80
80
80
f0
ENDCHAR
STARTCHAR Edieresis
ENCODING 203
SWIDTH 500 0
DWIDTH 6 0
BBX 4 10 1 0
BITMAP
90
00
f0
80
80
e0
80
80
80
f0
ENDCHAR
STARTCHAR Igrave
ENCODING 204
SWIDTH 500 0
DWIDTH 6 0
BBX 3 10 1 0
BITMAP
80
40
e0
40
40
40
40
40
40
e0
ENDCHAR
STARTCHAR Iacute
ENCODING 205
SWIDTH 500 0
DWIDTH 6 0
BBX 3 10 1 0
BITMAP
20
40
e0
40
40
40
40
40
40
e0
ENDCHAR
STARTCHAR Icircumflex
ENCODING 206
SWIDTH 500 0
DWIDTH 6 0
BBX 3 10 1 0
BITMAP
40
a0
e0
40
40
40
40
40
40
e0
ENDCHAR
STARTCHAR Idieresis
ENCODING 207
SWIDTH 500 0
DWIDTH 6 0
BBX 3 10 1 0
BITMAP
a0
00
e0
40
40
40
40
40
40
e0
ENDCHAR
STARTCHAR Eth
ENCODING 208
SWIDTH 500 0
DWIDTH 6 0
BBX 5 8 0 0
BITMAP
60
50
48
e8
48
48
50
60
ENDCHAR
STARTCHAR Ntilde
ENCODING 209
SWIDTH 500 0
DWIDTH 6 0
BBX 4 10 1 0
BITMAP
50
a0
90
90
d0
d0
b0
b0
90
90
ENDCHAR
STARTCHAR Ograve
ENCODING 210
SWIDTH 500 0
DWIDTH 6 0
BBX 5 10 0 0
BITMAP
40
20
70
88
88
88
88
88
88
70
ENDCHAR
STARTCHAR Oacute
ENCODING 211
SWIDTH 500 0
DWIDTH 6 0
BBX 5 10 0 0
BITMAP
10
20
70
88
88
88
88
88
88
70
ENDCHAR
STARTCHAR Ocircumflex
ENCODING 212
SWIDTH 500 0
DWIDTH 6 0
BBX 5 10 0 0
BITMAP
20
50
70
88
88
88
88
88
88
70
ENDCHAR
STARTCHAR Otilde
ENCODING 213
SWIDTH 500 0
DWIDTH 6 0
BBX 5 10 0 0
BITMAP
28
50
70
88
88
88
88
88
88
70
ENDCHAR
STARTCHAR Odieresis
ENCODING 214
SWIDTH 500 0
DWIDTH 6 0
BBX 5 10 0 0
BITMAP
50
00
70
88
88
88
88
88
88
70
ENDCHAR
STARTCHAR multiply
ENCODING 215
SWIDTH 500 0
DWIDTH 6 0
BBX 5 5 0 1
BITMAP
88
50
20
50
88
ENDCHAR
STARTCHAR Oslash
ENCODING 216
SWIDTH 500 0
DWIDTH 6 0
BBX 6 8 0 0
BITMAP
34
48
58
58
68
68
48
b0
ENDCHAR
STARTCHAR Ugrave
ENCODING 217
SWIDTH 500 0
DWIDTH 6 0
BBX 4 10 1 0
BITMAP
40
20
90
90
90
90
90
90
90
60
ENDCHAR
STARTCHAR Uacute
ENCODING 218
SWIDTH 500 0
DWIDTH 6 0
BBX 4 10 1 0
BITMAP
20
40
90
90
90
90
90
90
90
60
ENDCHAR
STARTCHAR Ucircumflex
ENCODING 219
SWIDTH 500 0
DWIDTH 6 0
BBX 4 10 1 0
BITMAP
60
90
00
90
90
90
90
90
90
60
ENDCHAR
STARTCHAR Udieresis
ENCODING 220
SWIDTH 500 0
DWIDTH 6 0
BBX 4 10 1 0
BITMAP
90
00
90
90
90
90
90
90
90
60
ENDCHAR
STARTCHAR Yacute
ENCODING 221
SWIDTH 500 0
DWIDTH 6 0
BBX 5 10 0 0
BITMAP
10
20
88
88
50
50
20
20
20
20
ENDCHAR
STARTCHAR Thorn
ENCODING 222
SWIDTH 500 0
DWIDTH 6 0
BBX 4 8 1 0
BITMAP
80
e0
90
90
90
e0
80
80
ENDCHAR
STARTCHAR germandbls
ENCODING 223
SWIDTH 500 0
DWIDTH 6 0
BBX 4 9 1 -1
BITMAP
c0
a0
a0
e0
90
90
d0
a0
80
ENDCHAR
STARTCHAR agrave
ENCODING 224
SWIDTH 500 0
DWIDTH 6 0
BBX 4 9 1 0
BITMAP
40
20
00
70
90
90
90
b0
50
ENDCHAR
STARTCHAR aacute
ENCODING 225
SWIDTH 500 0
DWIDTH 6 0
BBX 4 9 1 0
BITMAP
20
40
00
70
90
90
90
b0
50
ENDCHAR
STARTCHAR acircumflex
ENCODING 226
SWIDTH 500 0
DWIDTH 6 0
BBX 4 9 1 0
BITMAP
40
a0
00
70
90
90
90
b0
50
ENDCHAR
STARTCHAR atilde
ENCODING 227
SWIDTH 500 0
DWIDTH 6 0
BBX 4 9 1 0
BITMAP
50
a0
00
70
90
90
90
b0
50
ENDCHAR
STARTCHAR adieresis
ENCODING 228
SWIDTH 500 0
DWIDTH 6 0
BBX 4 8 1 0
BITMAP
a0
00
70
90
90
90
b0
50
ENDCHAR
STARTCHAR aring
ENCODING 229
SWIDTH 500 0
DWIDTH 6 0
BBX 4 9 1 0
BITMAP
40
a0
00
70
90
90
90
b0
50
ENDCHAR
STARTCHAR ae
ENCODING 230
SWIDTH 500 0
DWIDTH 6 0
BBX 5 6 0 0
BITMAP
70
28
68
b0
a0
78
ENDCHAR
STARTCHAR ccedilla
ENCODING 231
SWIDTH 500 0
DWIDTH 6 0
BBX 4 8 1 -2
BITMAP
60
90
80
80
90
60
40
80
ENDCHAR
STARTCHAR egrave
ENCODING 232
SWIDTH 500 0
DWIDTH 6 0
BBX 4 9 1 0
BITMAP
40
20
00
60
90
f0
80
90
60
ENDCHAR
STARTCHAR eacute
ENCODING 233
SWIDTH 500 0
DWIDTH 6 0
BBX 4 9 1 0
BITMAP
20
40
00
60
90
f0
80
90
60
ENDCHAR
STARTCHAR ecircumflex
ENCODING 234
SWIDTH 500 0
DWIDTH 6 0
BBX 4 9 1 0
BITMAP
20
50
00
60
90
f0
80
90
60
ENDCHAR
STARTCHAR edieresis
ENCODING 235
SWIDTH 500 0
DWIDTH 6 0
BBX 4 8 1 0
BITMAP
90
00
60
90
f0
80
90
60
ENDCHAR
STARTCHAR igrave
ENCODING 236
SWIDTH 500 0
DWIDTH 6 0
BBX 3 9 1 0
BITMAP
80
40
00
c0
40
40
40
40
60
ENDCHAR
STARTCHAR iacute
ENCODING 237
SWIDTH 500 0
DWIDTH 6 0
BBX 3 9 1 0
BITMAP
20
40
00
c0
40
40
40
40
60
ENDCHAR
STARTCHAR icircumflex
ENCODING 238
SWIDTH 500 0
DWIDTH 6 0
BBX 3 9 1 0
BITMAP
40
a0
00
c0
40
40
40
40
60
ENDCHAR
STARTCHAR idieresis
ENCODING 239
SWIDTH 500 0
DWIDTH 6 0
BBX 3 8 1 0
BITMAP
a0
00
c0
40
40
40
40
60
ENDCHAR
STARTCHAR eth
ENCODING 240
SWIDTH 500 0
DWIDTH 6 0
BBX 4 9 1 0
BITMAP
a0
40
a0
60
90
90
90
90
60
ENDCHAR
STARTCHAR ntilde
ENCODING 241
SWIDTH 500 0
DWIDTH 6 0
BBX 4 9 1 0
BITMAP
50
a0
00
e0
90
90
90
90
90
ENDCHAR
STARTCHAR ograve
ENCODING 242
SWIDTH 500 0
DWIDTH 6 0
BBX 4 9 1 0
BITMAP
80
40
00
60
90
90
90
90
60
ENDCHAR
STARTCHAR oacute
ENCODING 243
SWIDTH 500 0
DWIDTH 6 0
BBX 4 9 1 0
BITMAP
20
40
00
60
90
90
90
90
60
ENDCHAR
STARTCHAR ocircumflex
ENCODING 244
SWIDTH 500 0
DWIDTH 6 0
BBX 4 9 1 0
BITMAP
40
a0
00
60
90
90
90
90
60
ENDCHAR
STARTCHAR otilde
ENCODING 245
SWIDTH 500 0
DWIDTH 6 0
BBX 4 9 1 0
BITMAP
50
a0
00
60
90
90
90
90
60
ENDCHAR
STARTCHAR odieresis
ENCODING 246
SWIDTH 500 0
DWIDTH 6 0
BBX 4 8 1 0
BITMAP
90
00
60
90
90
90
90
60
ENDCHAR
STARTCHAR divide
ENCODING 247
SWIDTH 500 0
DWIDTH 6 0
BBX 5 7 0 0
BITMAP
20
20
00
f8
00
20
20
ENDCHAR
STARTCHAR oslash
ENCODING 248
SWIDTH 500 0
DWIDTH 6 0
BBX 6 6 0 0
BITMAP
34
48
58
68
48
b0
ENDCHAR
STARTCHAR ugrave
ENCODING 249
SWIDTH 500 0
DWIDTH 6 0
BBX 4 9 1 0
BITMAP
40
20
00
90
90
90
90
90
70
ENDCHAR
STARTCHAR uacute
ENCODING 250
SWIDTH 500 0
DWIDTH 6 0
BBX 4 9 1 0
BITMAP
20
40
00
90
90
90
90
90
70
ENDCHAR
STARTCHAR ucircumflex
ENCODING 251
SWIDTH 500 0
DWIDTH 6 0
BBX 4 9 1 0
BITMAP
20
50
00
90
90
90
90
90
70
ENDCHAR
STARTCHAR udieresis
ENCODING 252
SWIDTH 500 0
DWIDTH 6 0
BBX 4 8 1 0
BITMAP
90
00
90
90
90
90
90
70
ENDCHAR
STARTCHAR yacute
ENCODING 253
SWIDTH 500 0
DWIDTH 6 0
BBX 4 11 1 -2
BITMAP
20
40
00
90
90
90
90
90
70
10
e0
ENDCHAR
STARTCHAR thorn
ENCODING 254
SWIDTH 500 0
DWIDTH 6 0
BBX 4 10 1 -2
BITMAP
80
80
e0
90
90
90
90
e0
80
80
ENDCHAR
STARTCHAR ydieresis
ENCODING 255
SWIDTH 500 0
DWIDTH 6 0
BBX 4 10 1 -2
BITMAP
90
00
90
90
90
90
90
70
10
e0
ENDCHAR
ENDFONT
